<!-- Generated by IcoMoon.io -->
<svg version="1.1" xmlns="http://www.w3.org/2000/svg" width="90" height="32" viewBox="0 0 90 32">
<title>dou-logo</title>
<path d="M0 0.53h0.619c1.635 0 7.116-0.133 9.149-0.133 12.376 0 17.37 7.116 17.37 15.337 0 8.663-5.922 15.823-17.724 15.823-1.635 0-5.702-0.088-8.663-0.088h-0.751v-30.939zM7.072 7.16v17.68c0.928 0.088 1.547 0.088 2.563 0.088 6.1 0 9.99-3.314 9.99-9.193 0-5.701-4.199-8.707-9.945-8.707-0.751 0-1.724 0-2.608 0.133z"></path>
<path d="M45.187-0c9.414 0 16.442 6.144 16.442 16 0 9.37-7.028 16-16.442 16s-16.442-6.143-16.442-16c0-8.973 6.585-16 16.442-16zM45.187 25.37c5.879 0 8.928-4.155 8.928-9.37 0-5.658-3.934-9.371-8.928-9.371-5.127 0-8.928 3.713-8.928 9.371 0 5.304 3.977 9.37 8.928 9.37z"></path>
<path d="M89.52 18.696c0 9.458-6.011 13.304-12.641 13.304-7.956 0-13.481-4.553-13.481-13.613v-17.857h7.072v16.354c0 4.818 1.458 8.487 6.408 8.487 4.288 0 5.569-3.138 5.569-8.088v-16.752h7.072v18.166z"></path>
</svg>
