<svg aria-hidden="true" style="position: absolute; width: 0; height: 0; overflow: hidden;" version="1.1" xmlns="http://www.w3.org/2000/svg" xmlns:xlink="http://www.w3.org/1999/xlink">
<defs>
<symbol id="icon-dou-logo" viewBox="0 0 90 32">
<path d="M0 0.53h0.619c1.635 0 7.116-0.133 9.149-0.133 12.376 0 17.37 7.116 17.37 15.337 0 8.663-5.922 15.823-17.724 15.823-1.635 0-5.702-0.088-8.663-0.088h-0.751v-30.939zM7.072 7.16v17.68c0.928 0.088 1.547 0.088 2.563 0.088 6.1 0 9.99-3.314 9.99-9.193 0-5.701-4.199-8.707-9.945-8.707-0.751 0-1.724 0-2.608 0.133z"></path>
<path d="M45.187-0c9.414 0 16.442 6.144 16.442 16 0 9.37-7.028 16-16.442 16s-16.442-6.143-16.442-16c0-8.973 6.585-16 16.442-16zM45.187 25.37c5.879 0 8.928-4.155 8.928-9.37 0-5.658-3.934-9.371-8.928-9.371-5.127 0-8.928 3.713-8.928 9.371 0 5.304 3.977 9.37 8.928 9.37z"></path>
<path d="M89.52 18.696c0 9.458-6.011 13.304-12.641 13.304-7.956 0-13.481-4.553-13.481-13.613v-17.857h7.072v16.354c0 4.818 1.458 8.487 6.408 8.487 4.288 0 5.569-3.138 5.569-8.088v-16.752h7.072v18.166z"></path>
</symbol>
<symbol id="icon-github" viewBox="0 0 32 32">
<path d="M16 0.395c-8.836 0-16 7.163-16 16 0 7.069 4.585 13.067 10.942 15.182 0.8 0.148 1.094-0.347 1.094-0.77 0-0.381-0.015-1.642-0.022-2.979-4.452 0.968-5.391-1.888-5.391-1.888-0.728-1.849-1.776-2.341-1.776-2.341-1.452-0.993 0.11-0.973 0.11-0.973 1.606 0.113 2.452 1.649 2.452 1.649 1.427 2.446 3.743 1.739 4.656 1.33 0.143-1.034 0.558-1.74 1.016-2.14-3.554-0.404-7.29-1.777-7.29-7.907 0-1.747 0.625-3.174 1.649-4.295-0.166-0.403-0.714-2.030 0.155-4.234 0 0 1.344-0.43 4.401 1.64 1.276-0.355 2.645-0.532 4.005-0.539 1.359 0.006 2.729 0.184 4.008 0.539 3.054-2.070 4.395-1.64 4.395-1.64 0.871 2.204 0.323 3.831 0.157 4.234 1.026 1.12 1.647 2.548 1.647 4.295 0 6.145-3.743 7.498-7.306 7.895 0.574 0.497 1.085 1.47 1.085 2.963 0 2.141-0.019 3.864-0.019 4.391 0 0.426 0.288 0.925 1.099 0.768 6.354-2.118 10.933-8.113 10.933-15.18 0-8.837-7.164-16-16-16z"></path>
</symbol>
<symbol id="icon-linkedin2" viewBox="0 0 32 32">
<path d="M12 12h5.535v2.837h0.079c0.77-1.381 2.655-2.837 5.464-2.837 5.842 0 6.922 3.637 6.922 8.367v9.633h-5.769v-8.54c0-2.037-0.042-4.657-3.001-4.657-3.005 0-3.463 2.218-3.463 4.509v8.688h-5.767v-18z"></path>
<path d="M2 12h6v18h-6v-18z"></path>
<path d="M8 7c0 1.657-1.343 3-3 3s-3-1.343-3-3c0-1.657 1.343-3 3-3s3 1.343 3 3z"></path>
</symbol>
</defs>
</svg>
